<?xml version="1.0" encoding="UTF-8"?>
<svg width="815px" height="435px" viewBox="0 0 815 435" version="1.1" xmlns="http://www.w3.org/2000/svg" xmlns:xlink="http://www.w3.org/1999/xlink">
    <title>Combined Shape Copy</title>
    <g id="Page-1" stroke="none" stroke-width="1" fill="none" fill-rule="evenodd">
        <g id="Artboard" transform="translate(-14.000000, -14.000000)" fill="#000000">
            <path d="M485.858809,21.3354225 C490.252728,24.4637631 506.697187,38.5828248 496.439823,52.2975105 C492.713546,49.6208818 489.500495,46.0221897 486.452271,42.316363 L485.823842,41.5483789 C478.62132,32.70513 472.21588,23.573546 461.91474,25.1303566 C452.173096,26.6026106 447.584399,32.9398489 442.982779,42.9870697 C440.53236,48.3373369 436.898183,57.6201283 434.761842,66.1914392 C432.110667,77.5232915 430.671363,93.4459739 429.433151,103.892239 C422.783671,159.991097 443.920748,346.32503 474.421266,446.468858 C466.482332,453.145393 443.361089,447.368711 432.110667,420.051387 C423.696051,393.08852 415.529121,366.63418 407.689639,341.117511 C384.004382,346.186256 360.21784,344.491407 336.330931,336.03491 C309.327425,321.845688 283.657329,304.634688 262.373566,251.73136 C256.615289,237.418477 252.474203,225.746005 247.696885,227.014161 C244.830494,227.775055 244.76237,243.403707 245.551335,259.497533 L245.633016,261.107933 C246.167516,271.310195 247.019849,281.506475 247.696885,288.037984 C248.516455,295.944548 255.194002,313.408268 262.205045,330.791288 L263.120966,333.057389 C271.067471,352.679232 279.133203,371.662471 279.337703,376.084615 C279.730971,384.588737 262.373566,384.588737 251.768548,376.084615 C242.207773,356.055505 233.199689,329.679641 224.744295,296.957023 C227.451953,310.250118 221.922528,327.821063 208.156019,349.66986 C187.506257,382.443054 141.636731,380.81224 119.131741,376.084615 C116.036279,374.110481 104.815338,364.682662 103.404863,346.040951 C101.134469,316.034033 90.3145128,289.005156 77.2099678,240.05787 C72.0402329,215.371952 64.1773922,170.549388 53.6214458,105.590178 C43.2416001,118.428617 37.4756355,127.492572 36.323552,132.782043 C34.6633257,140.40451 49.3194637,144.262087 47.8031454,150.214596 C46.2868272,156.167105 31.8964872,164.053154 29.7171368,158.716405 C22.8534829,141.908828 0.00321573721,148.718069 29.7171368,105.590178 C59.4310578,62.4622865 90.9739053,62.0357606 101.134469,62.0357606 C128.595148,61.6092348 147.488364,69.4426518 154.083233,105.590178 C154.083233,141.007662 149.25283,173.753866 139.592024,203.828787 C157.124577,199.893431 171.644746,202.450686 183.152529,211.500552 C194.660313,220.550417 206.326474,238.586421 218.151013,265.608564 L191.5765,105.590178 C182.523408,87.9825929 188.049915,82.5348725 208.156019,89.2470168 C234.603404,93.8782619 271.903939,98.9847306 310.223975,86.3921111 C316.570051,83.2843172 322.833857,108.032043 316.570051,108.032043 C300.206403,114.656622 277.248681,117.823074 247.696885,117.531399 C267.406403,127.698495 290.364125,133.784389 316.570051,135.789082 C338.650651,141.596217 306.82544,149.419786 277.261162,142.68112 C257.551644,138.188676 237.848261,131.709397 218.151013,123.243282 C220.140561,141.404944 221.135335,155.496839 221.135335,165.518965 C262.373566,156.439364 288.636955,195.995073 340.249301,203.828787 C341.849866,204.681455 343.733587,205.158949 345.579587,205.515078 L346.081865,205.609386 C352.426102,206.77067 357.972064,206.758963 349.491277,216.037854 C327.903316,216.037854 316.771,213.980278 288.636955,203.828787 C262.372624,194.351937 250.964023,176.781171 240.694524,176.781171 C233.848191,176.781171 228.531448,178.039307 224.744295,180.55558 L229.327236,207.811468 C251.358122,201.056573 269.249863,213.845293 283.002458,246.177626 C296.530175,277.615893 318.963061,310.446298 340.249301,321.845688 C363.582095,333.859883 383.372155,331.922665 399.619478,316.034033 L400.442581,317.496786 C363.649118,197.43168 335.05544,102.306163 323.615772,80.2956985 C320.64546,73.666247 317.038427,69.504597 312.794676,67.8107485 C313.47276,53.8071992 321.551774,51.8768069 337.031717,62.0195718 C345.714227,74.7935929 351.580145,87.4699715 356.754419,103.892239 C383.434668,188.570828 419.571613,303.587923 429.953023,340.628062 L430.232375,341.63 L429.969079,340.214359 C420.753129,290.561286 415.100705,251.236879 413.011807,222.241139 C408.519278,158.587632 407.745568,113.644559 410.690678,87.4119198 C415.108343,48.0629616 428.345744,21.4572187 445.72211,16.1879891 C463.098476,10.9187596 481.464891,18.2070818 485.858809,21.3354225 Z M747.437053,17.3072035 C782.768296,31.3539193 811.239044,58.1632761 822.843548,69.7229191 L823.682105,70.5608614 C825.026472,71.9083176 826.103396,73.0065547 826.893334,73.800861 L827.332702,74.2405355 C827.737319,74.6428628 828.037214,74.9318359 828.228165,75.0956369 C831.410694,77.8256544 823.955348,81.8227611 820.318411,79.8258506 C792.325657,56.4584608 756.693095,29.78086 727.672316,27.7095716 C700.045701,25.7377882 688.283469,55.4031176 688.437186,56.4584608 C682.931666,77.2013258 691.854005,130.33106 705.734044,190.680036 C715.786134,189.026807 723.899658,188.198923 730.07789,188.198923 L730.078113,185.941602 L730.078113,185.941602 L730.078923,184.374998 C730.091314,168.478271 730.252404,145.855453 732.346569,134.011537 C732.346569,131.066911 746.710922,126.542573 749.409904,134.011537 C751.209225,138.990847 751.209225,157.053309 749.409904,188.198923 C750.729942,188.198923 753.923679,189.240144 758.991114,191.322586 C756.246435,194.468064 753.611204,196.535225 751.08542,197.524069 L749.409904,217.416068 C755.723168,218.508889 759.379383,219.858501 760.378549,221.464905 C755.627835,225.814346 756.584817,223.525497 751.08542,228.346402 C746.323664,250.299325 783.491444,407.357288 777.914033,409.524883 C772.336622,411.692478 732.346569,249.945088 732.346569,236.156493 C728.346486,236.635224 723.083529,237.912722 717.618557,239.633215 C741.937675,335.448175 772.037831,432.583671 773.644826,439.95659 C776.575447,453.40233 747.437053,446.450982 736.200963,442.760617 C720.153354,432.587662 700.059704,430.118615 657.874176,366.197541 C633.023745,322.077987 614.251688,267.775966 601.558004,203.291478 C605.776335,255.059733 624.548392,320.989666 657.874176,401.081278 C649.78256,404.792517 639.855777,401.94368 638.599343,401.081278 C634.586211,392.713065 630.762941,384.150032 627.129532,375.392181 C603.630801,366.842683 584.581062,354.735947 569.982177,339.070763 C546.834083,314.231938 537.165045,279.424001 533.379085,271.855653 C529.593125,264.287305 531.379312,265.464121 527.954781,253.396827 C519.935919,255.992619 509.838166,257.290515 497.661523,257.290515 L509.420249,324.802199 L533.379085,425.201976 C526.426694,431.757495 519.29972,431.757495 511.998162,425.201976 C510.440528,419.857792 509.010203,415.670291 507.059528,409.000769 C506.530476,407.191897 505.615596,402.488647 504.779019,397.725628 L504.60112,396.705099 C503.836885,392.287796 503.168752,387.993537 502.968331,386.091868 C493.692319,355.017851 485.303926,313.307735 477.803151,260.961518 L450.147808,259.367326 C447.172324,253.329321 448.708314,247.961589 454.755776,243.264131 L475.330031,243.264131 C472.745299,155.645272 477.222224,99.4448425 488.760804,74.6628434 C493.636069,70.2090422 511.998162,64.2208066 527.954781,87.0769478 C533.370284,126.11691 539.122933,175.632026 545.212728,235.622296 C548.718185,234.338069 554.524361,232.909146 562.631255,231.335528 C570.73815,229.761909 577.776869,228.697527 583.747411,228.14238 C584.847015,228.14238 585.824985,228.178784 586.68132,228.251591 C578.880076,179.663955 574.979692,127.07311 574.979692,70.4800358 C578.442947,65.1168938 587.302385,65.1168938 601.558004,70.4800358 C610.403834,93.7907903 623.047788,255.462824 657.874176,326.271393 C681.091767,373.477106 710.946059,408.092846 747.437053,430.118615 C731.800056,369.466426 715.186559,308.699192 697.596563,247.816915 C696.050837,248.652581 694.666039,249.486191 693.494046,250.299325 C687.407931,249.585222 679.393117,236.510731 682.574768,230.937034 C685.162738,229.490596 687.988699,228.139006 691.052651,226.882264 C663.226616,136.337599 658.375058,76.5585876 666.220774,53.1197826 C674.992617,5.69678872 729.48371,12.6880378 747.437053,17.3072035 Z M101.008583,241.72904 C105.099593,258.671643 109.149263,274.535104 113.157592,289.319424 L113.658418,291.161843 L135.938119,290.818429 C127.203187,305.301501 123.679229,320.3297 125.366245,335.903027 C127.05326,351.476354 133.250202,361.12324 143.95707,364.843683 C163.446509,360.158394 179.12423,350.511509 190.990234,335.903027 C208.789241,313.990305 204.57677,298.863149 198.482768,274.084265 C192.388767,249.305382 190.990234,249.305382 171.073472,222.241139 C148.19611,202.753239 142.582705,232.788572 101.008583,241.72904 Z M587.70518,234.476958 L587.652671,234.5158 C587.169614,234.869879 586.637261,235.238711 586.055614,235.622296 C578.4942,240.608907 566.023571,245.454539 548.643726,250.159191 C557.86101,283.038764 569.562238,307.919766 583.747411,324.802199 C594.008769,338.884186 605.721663,348.718015 618.886095,354.303686 C605.373107,317.561082 594.97971,277.619172 587.70518,234.476958 Z M430.232375,341.63 L430.267604,341.819653 C430.867126,345.037408 431.48148,348.298154 432.110667,351.601891 C433.578911,354.657518 432.796506,350.870031 430.334802,341.996947 L430.232375,341.63 Z M505.172887,96.0764122 C496.046035,125.219478 492.717581,173.851181 495.187526,241.97152 L497.07864,241.971215 C509.485783,241.964885 508.432429,241.827223 525.391558,238.833065 C516.319169,172.724703 509.579612,125.139152 505.172887,96.0764122 Z M98.8684775,74.2871031 C87.7743832,74.2871031 74.8427302,82.7626438 60.0735187,99.7137252 C69.0176546,99.7137252 74.4126371,100.799768 76.2584661,102.971852 C78.7860069,128.464403 85.8543571,169.846327 97.463517,227.117625 C110.726435,212.25185 120.063371,194.074847 125.474323,172.586616 C128.901685,139.105639 132.677732,128.244664 128.901685,102.971852 C119.956502,79.1875247 116.667954,79.1875247 98.8684775,74.2871031 Z M730.07789,204.726119 L710.06922,209.108992 C710.966831,212.846217 711.879204,216.600713 712.804219,220.366846 C718.146121,219.21841 723.903646,218.2342 730.07789,217.416068 L730.07789,204.726119 Z" id="Combined-Shape-Copy"></path>
        </g>
    </g>
</svg>