<?xml version="1.0" encoding="UTF-8"?>
<svg width="167px" height="299px" viewBox="0 0 167 299" version="1.1" xmlns="http://www.w3.org/2000/svg" xmlns:xlink="http://www.w3.org/1999/xlink">
    <title>c copy</title>
    <g id="Page-1" stroke="none" stroke-width="1" fill="none" fill-rule="evenodd">
        <g id="Artboard" transform="translate(-11.000000, -82.000000)" fill="#000000" stroke="#979797">
            <path d="M19.9185008,164.870109 C31.5420615,122.162976 53.3595688,78.2599669 90.3909901,83.4488446 C121.998126,87.8776664 122.108229,177.308305 122.09999,191.261502 L122.099604,192.020108 C113.424658,197.961709 108.342694,197.961709 100.951655,192.020108 C100.951655,180.402564 102.111171,101.711661 84.0360384,97.4515987 C68.5275585,88.2963913 54.107782,115.49577 42.9920607,152.933717 C32.7323527,187.488596 30.7697969,216.026593 36.1969406,245.956404 L64.6301022,243.753527 L64.6301022,213.507064 C73.9317321,209.152507 80.1130513,209.960907 83.1740597,215.932266 L83.1740597,249.682274 L83.1740597,249.682274 C91.5337363,250.215301 95.7135746,250.933721 95.7135746,251.837533 C95.7135746,252.741345 91.5337363,253.825877 83.1740597,255.091131 C86.8779039,293.417314 91.0577422,317.590299 95.7135746,327.610086 C89.3677473,332.136272 81.6223509,328.995507 73.767932,318.459163 C68.5316527,311.434934 65.4857094,299.998304 64.6301022,284.149273 C56.5460996,288.681044 50.795841,290.383981 47.3793266,289.258085 C49.0434084,295.313567 50.2999869,299.811374 50.469574,300.231387 C89.8474246,397.757747 139.8121,357.746707 146.32113,347.16738 C153.285055,333.274126 157.05482,302.045436 157.630423,253.481308 L157.630423,253.481308 L173.412776,253.481308 C180.336461,300.477118 177.850272,334.405925 165.954209,355.267731 C148.110115,386.560439 116.281746,380.61888 95.2563635,378.366245 C84.0360384,374.014561 45.2529411,357.010385 26.7739406,300.231387 C8.29494016,243.45239 8.29494016,207.577242 19.9185008,164.870109 Z M64.6301022,257.8734 L40.9669399,265.693646 C41.2676532,266.807485 41.5806171,267.965292 41.9019926,269.152827 C47.6235142,269.103653 55.199868,268.485351 64.6301022,267.29855 L64.6301022,257.8734 Z" id="c-copy"></path>
        </g>
    </g>
</svg>