<?xml version="1.0" encoding="UTF-8"?>
<svg width="1192px" height="435px" viewBox="0 0 1192 435" version="1.1" xmlns="http://www.w3.org/2000/svg" xmlns:xlink="http://www.w3.org/1999/xlink">
    <title>Combined Shape</title>
    <g id="Page-1" stroke="none" stroke-width="1" fill="none" fill-rule="evenodd">
        <path d="M848.197695,7.3324327 C852.593369,10.4594983 869.044402,24.5728053 858.782938,38.2819012 C845.928572,29.0559088 839.17921,8.87049244 824.244055,11.1258201 C814.498517,12.5974741 809.907986,18.9321294 805.304527,28.9752551 C802.853128,34.3233417 799.217499,43.6023496 797.080304,52.170167 C794.428069,63.4974007 792.98819,79.4135933 791.749484,89.8556002 C785.097345,145.931594 806.242871,332.189581 836.75558,432.292592 C828.813472,438.966406 805.682988,433.192078 794.428069,405.885889 C786.010135,378.934155 777.839983,352.490735 769.997406,326.984592 C746.302556,332.050863 722.506507,330.356705 698.610051,321.903655 C671.595751,307.720216 645.915395,290.516231 624.623125,237.634465 C618.862546,223.327416 614.719806,211.659702 609.940578,212.927341 C605.161351,214.19498 608.158193,256.745116 609.940578,273.926292 C611.722964,291.107468 641.200617,353.43638 641.594042,361.937036 C641.987467,370.437692 624.623125,370.437692 614.013868,361.937036 C604.449272,341.91609 595.437588,315.550977 586.978814,282.841695 C589.687554,296.129372 584.155919,313.693156 570.383908,335.533047 C549.725892,368.292884 503.838032,366.662735 481.324047,361.937036 C478.227348,359.963707 467.001922,350.53973 465.590883,331.905617 C463.319581,301.910929 452.495301,274.893069 439.385518,225.965734 C434.213717,201.289877 426.347733,156.485582 415.787568,91.5528474 C405.403573,104.386054 399.635304,113.446315 398.48276,118.73363 C396.82187,126.35299 411.483866,130.208995 409.966942,136.159078 C408.450018,142.109161 394.053926,149.991995 391.873704,144.657421 C385.007307,127.856695 362.147907,134.663161 391.873704,91.5528474 C421.599502,48.4425342 453.154957,48.0161822 463.319581,48.0161822 C490.791237,47.5898302 509.692004,55.4200544 516.289509,91.5528474 C516.289509,126.955897 511.457175,159.688753 501.792508,189.751416 C519.332069,185.817665 533.858042,188.373877 545.370424,197.420054 C556.882807,206.466231 568.553632,224.494884 580.382897,251.506014 L553.797762,91.5528474 C544.741052,73.952439 550.269767,68.5069391 570.383908,75.2163476 C596.841864,79.8457051 634.157308,84.9500924 672.49266,72.3626055 C678.841272,69.2560783 685.107582,93.9937177 678.841272,93.9937177 C662.471084,100.615596 639.504186,103.780758 609.940578,103.489201 C629.657974,113.652154 652.624872,119.735568 678.841272,121.739444 C700.930698,127.544212 669.092766,135.364591 639.516672,128.628672 C619.799276,124.138059 600.088018,117.661421 580.382897,109.198756 C582.37324,127.353017 583.368412,141.439168 583.368412,151.457209 C624.623125,142.381308 650.897012,181.920895 702.529986,189.751416 C709.808192,193.625599 722.939048,189.751416 711.775657,201.955508 C690.179067,201.955508 679.042302,199.89877 650.897012,189.751416 C624.622182,180.278429 613.209022,162.714824 602.935418,162.714824 C596.086349,162.714824 590.767481,163.972448 586.978814,166.487695 L591.563587,193.732474 C613.603279,186.980333 631.502171,199.76384 645.260262,232.082995 C658.793387,263.508449 681.235239,296.325472 702.529986,307.720216 C725.872107,319.729514 745.670076,317.793086 761.923894,301.910929 L762.74801,303.375316 C725.939511,183.358094 697.334121,88.2703074 685.88981,66.2686777 C682.91831,59.6419282 679.309836,55.4819744 675.064388,53.7888163 C675.742743,39.7909745 683.824986,37.8613691 699.311117,48 C707.997097,60.7688147 713.86536,73.4400266 719.041702,89.8556002 C745.732615,174.499676 781.884004,289.469893 792.269563,326.494935 L792.549,327.496 L792.285626,326.0814 C783.065992,276.448565 777.411309,237.140186 775.321576,208.156264 C770.827251,144.528701 770.053232,99.6039455 772.999519,73.3819985 C777.418949,34.0490782 790.661642,7.45417926 808.044953,2.18709736 C825.428264,-3.07998454 843.80202,4.20536708 848.197695,7.3324327 Z M1109.88049,3.30585551 C1154.0622,20.8570939 1187.52009,58.3418308 1190.70389,61.0707356 C1193.88769,63.7996403 1186.42937,67.7951179 1182.79098,65.7990213 C1154.78704,42.4411555 1119.14023,15.774428 1090.10785,13.7039838 C1062.4702,11.7330041 1050.70326,41.3862425 1050.85704,42.4411555 C1045.34933,63.1755336 1054.2752,116.283479 1068.16075,176.60774 C1078.21663,174.9555 1086.33357,174.127923 1092.51439,174.127923 L1092.51492,171.094385 C1092.52298,155.172088 1092.65406,131.999029 1094.78397,119.962623 C1094.78397,117.019197 1109.15407,112.496703 1111.85413,119.962623 C1113.65417,124.939903 1113.65417,142.995003 1111.85413,174.127923 C1113.17469,174.127923 1116.36971,175.16872 1121.43917,177.250313 C1118.69339,180.394509 1116.05711,182.460828 1113.53032,183.449269 L1111.85413,203.333159 C1118.16992,204.425535 1121.82759,205.774597 1122.82716,207.380346 C1118.07455,211.728014 1119.03191,209.440099 1113.53032,214.259038 C1108.76666,236.203015 1145.94929,393.196963 1140.36965,395.363675 C1134.79001,397.530386 1094.78397,235.848921 1094.78397,222.065947 C1090.78229,222.544482 1085.51723,223.821459 1080.05008,225.541252 C1104.37898,321.317382 1134.4911,418.413074 1136.09874,425.782979 C1139.03053,439.223239 1109.88049,432.274724 1098.63991,428.585863 C1082.58589,418.417054 1062.4842,415.949013 1020.28181,352.053992 C995.421451,307.952421 976.641891,253.672532 963.943134,189.214326 C968.163151,240.961482 986.942711,306.864543 1020.28181,386.923511 C1012.18696,390.633237 1002.25621,387.785562 1000.99928,386.923511 C996.984624,378.55888 993.159901,369.999517 989.525106,361.245422 C966.01628,352.698567 946.959223,340.596873 932.354686,324.938271 C909.19734,300.10957 899.524437,265.31582 895.736964,257.750556 C891.94949,250.185293 893.736392,251.361629 890.310492,239.299254 C882.288424,241.893987 872.186635,243.191354 860.005126,243.191354 L871.768552,310.675522 L895.736964,411.034378 C888.781794,417.587225 881.651971,417.587225 874.347495,411.034378 C872.789239,405.692372 871.358342,401.506578 869.406887,394.839775 C868.348361,391.223504 865.745903,376.034443 865.314055,371.94021 C856.034335,340.878859 847.642589,299.185743 840.138817,246.860861 L812.47242,245.267319 C809.495747,239.231775 811.03235,233.866231 817.08223,229.170687 L837.664708,229.170687 C835.078943,141.58754 839.557657,85.4100168 851.100849,60.6381184 C855.978063,56.1861325 874.347495,50.2003376 890.310492,73.0471631 C895.72816,112.071213 901.483108,161.566148 907.575337,221.531968 C911.082195,220.248264 916.890691,218.819923 925.000826,217.246946 C933.110961,215.673969 940.152493,214.61002 946.125422,214.0551 C947.225466,214.0551 948.203826,214.091489 949.060504,214.164267 C941.256136,165.596352 937.354199,113.026979 937.354199,56.4570157 C940.818838,51.0960596 949.681816,51.0960596 963.943134,56.4570157 C972.7925,79.7582691 985.441507,241.364409 1020.28181,312.144117 C1043.50869,359.33059 1073.37491,393.932222 1109.88049,415.949013 C1094.23726,355.321609 1077.61714,294.579209 1060.02014,233.721811 C1058.47315,234.557292 1057.08814,235.390383 1055.91592,236.203015 C1049.82738,235.489202 1041.80936,222.42004 1044.99228,216.848615 C1047.58128,215.402766 1050.40837,214.051727 1053.47355,212.795497 C1025.63643,122.288178 1020.78287,62.5331765 1028.63175,39.1038382 C1037.4071,-8.29982706 1091.91997,-1.31142745 1109.88049,3.30585551 Z M275.093625,379.516982 C278.79183,380.346812 280.434437,381.39024 280.021445,382.647264 C274.742114,398.715983 272.215041,412.957973 269.086283,416.417325 C260.919652,419.571784 254.342805,413.838466 252.012169,406.358441 C253.009135,401.601992 260.702954,392.654839 275.093625,379.516982 Z M389.686326,350.973395 C373.6511,383.00627 365.103514,412.45808 362.085279,416.300834 C359.067043,420.143588 342.967846,407.31006 346.504938,398.193698 C348.862999,392.116123 362.758925,375.722403 388.192715,349.01254 C389.899523,348.899308 390.397393,349.552926 389.686326,350.973395 Z M208.072549,48 C219.459102,48 231.674908,48.7092737 240.193539,58.8009599 C242.700857,61.7712808 240.180265,67.8690726 232.631764,77.0943352 C228.309764,68.1361768 223.918876,65.5697754 219.459102,69.395131 C208.072549,99.0994219 192.18848,243.447875 240.193539,392.035796 C226.370581,396.302693 219.459102,396.302693 219.459102,392.035796 C189.179962,349.456464 164.674061,287.649945 145.941401,206.61624 C138.351547,287.093129 152.456744,361.072642 157.460459,361.072642 C121.807764,392.536116 96.9999424,312.865967 83.1336862,237.099512 C69.1550186,160.718832 66.1835555,88.0645638 46.3415101,77.0943352 C23.051,95.2476672 18.6388511,141.108813 18.6388511,155.419182 C18.6388511,169.729552 46.3415101,159.64494 46.3415101,165.5352 C46.3415101,170.209963 14.9222991,177.358961 4.3137353,171.491774 C4.3137353,171.491774 -5.39216913,152.950808 4.3137353,122.450268 C14.0196397,91.9497273 26.2271251,73.5547836 38.4233266,66.1778717 C46.3415101,62.937635 61.6531301,58.8009599 73.3930542,69.395131 C98.3497158,122.450268 98.3497158,265.738196 122.722518,310.646345 C122.722518,282.82828 117.993345,200.345267 132.188384,155.419182 C151.33803,149.624056 161.244439,155.419182 161.244439,155.419182 C171.171233,218.262915 182.783944,280.914941 198.850614,306.32243 C193.336439,280.875214 169.3722,91.7765752 208.072549,48 Z M303.512254,73.4189083 C335.132024,77.845925 335.24217,167.240113 335.233928,181.187623 L335.233542,181.94592 C326.555128,187.885099 321.471133,187.885099 314.077141,181.94592 C314.077141,170.333111 315.23712,91.6742815 297.154762,87.4159552 C281.640084,78.2644792 267.214544,105.452772 256.09438,142.87546 C245.830571,177.416255 243.867231,205.942621 249.296544,235.860233 L277.74107,233.658254 L277.74107,203.424119 C287.046417,199.071336 293.230207,199.879407 296.292439,205.848332 L296.292439,239.584584 C304.655457,240.117394 308.836966,240.835521 308.836966,241.738965 C308.836966,242.642408 304.655457,243.726499 296.292439,244.991236 C299.997764,283.301799 304.179273,307.464931 308.836966,317.480634 C302.488602,322.004975 294.74011,318.865491 286.882552,308.333441 C281.64418,301.312075 278.597019,289.880106 277.74107,274.037536 C269.653836,278.567459 263.901279,280.269702 260.483399,279.144265 C262.148147,285.197283 263.405227,289.693253 263.574882,290.113095 C302.968471,387.599705 352.953118,347.604973 359.464749,337.029957 C366.361791,323.281242 370.126984,292.54899 370.760329,244.833201 L370.778563,243.38207 L386.567224,243.38207 C393.493676,290.358725 391.006493,324.273704 379.105676,345.127006 C361.254449,376.40696 329.413358,370.467823 308.379572,368.216107 C297.154762,363.866196 258.356164,346.86895 239.869777,290.113095 C221.383391,233.357239 221.383391,197.496714 233.011597,154.806987 C244.639804,112.11726 266.466032,68.2321455 303.512254,73.4189083 Z M463.193645,227.636222 C467.286291,244.571919 471.33758,260.428915 475.347511,275.207209 L475.848537,277.048878 L498.137143,276.705603 C489.39872,291.182772 485.873353,306.204846 487.561043,321.771826 C489.248732,337.338806 495.448151,346.981759 506.159299,350.700686 C525.656527,346.017307 541.340515,336.374354 553.211262,321.771826 C571.017383,299.868035 566.803228,284.747044 560.706791,259.97826 C554.610354,235.209476 553.211262,235.209476 533.286539,208.156264 C510.400033,188.676306 504.784384,218.699398 463.193645,227.636222 Z M950.084895,220.38782 L950.032243,220.425922 C949.548993,220.779857 949.016427,221.148538 948.434548,221.531968 C940.870111,226.516546 928.394498,231.360202 911.007706,236.062938 C920.228674,268.929109 931.93458,293.79997 946.125422,310.675522 C956.390852,324.751729 968.10839,334.581534 981.278038,340.164937 C967.760026,303.438288 957.362393,263.512565 950.084895,220.38782 Z M792.549,327.496 L792.58427,327.686041 C793.184031,330.902484 793.798631,334.1619 794.428069,337.464291 C795.8969,340.518672 795.114182,336.732729 792.651495,327.863262 L792.549,327.496 Z M277.74107,247.772371 L254.068498,255.589609 C254.369261,256.702734 254.682273,257.859786 255.003698,259.046543 C260.728152,258.998009 268.307358,258.379961 277.74107,257.19368 L277.74107,247.772371 Z M867.519492,82.0429595 C858.388992,111.174147 855.059208,159.786029 857.53014,227.878603 L859.42201,227.878298 C871.834112,227.871971 870.780337,227.734365 887.746244,224.741428 C878.670229,158.66001 871.927978,111.093854 867.519492,82.0429595 Z M461.052685,60.2625313 C449.954156,60.2625313 437.017334,68.7346175 422.24222,85.67879 C431.18993,85.67879 436.587069,86.7643897 438.433636,88.9355891 C440.962187,114.417749 448.033362,155.782807 459.647162,213.030763 C472.915382,198.171046 482.256049,180.001452 487.669165,158.521979 C491.097896,125.054649 494.875453,114.1981 491.097896,88.9355891 C482.149138,65.1609555 478.859275,65.1609555 461.052685,60.2625313 Z M1092.51439,190.648382 L1072.49787,195.030094 C1073.39579,198.765577 1074.30847,202.518322 1075.2338,206.282698 C1080.57785,205.134767 1086.33768,204.150958 1092.51439,203.333159 L1092.51439,190.648382 Z" id="Combined-Shape" fill="#000000"></path>
    </g>
</svg>