<?xml version="1.0" encoding="UTF-8"?>
<svg width="274px" height="100px" viewBox="0 0 274 100" version="1.1" xmlns="http://www.w3.org/2000/svg" xmlns:xlink="http://www.w3.org/1999/xlink">
    <title>Hand Style</title>
    <g id="Page-1" stroke="none" stroke-width="1" fill="none" fill-rule="evenodd">
        <g id="Hand-Style" fill="#000000">
            <path d="M195.057358,1.68630402 C196.068218,2.40546279 199.85141,5.65122409 197.491613,8.8040254 C196.666661,8.21190003 195.951049,7.42348333 195.273349,6.60572085 L194.937328,6.19516703 C193.325299,4.20647503 191.865167,2.20889689 189.548815,2.55870266 C187.307664,2.89715187 186.251994,4.35398826 185.193351,6.66369417 C184.629611,7.89364067 183.793537,10.0276157 183.302053,11.998032 C182.692127,14.6030555 182.361002,18.2634423 182.076141,20.6648824 C180.546369,33.5611718 185.409139,76.3965586 192.426051,99.4181282 C190.59963,100.952964 185.280385,99.624991 182.692127,93.3451465 C180.75614,87.1463683 178.877143,81.0645087 177.07349,75.1982414 C171.625051,76.3646705 166.15265,75.9750711 160.657158,74.0310139 C154.444764,70.7691237 148.539134,66.812572 143.642617,54.6508872 C142.317875,51.3605694 141.365182,48.6772426 140.266118,48.9687727 C139.621839,49.1396697 139.592068,52.5731048 139.760316,56.1812705 L139.791977,56.8191909 C139.914985,59.1602742 140.110643,61.4984665 140.266118,62.9972377 C140.445445,64.7259341 141.843837,68.4420059 143.367864,72.2393259 L143.695966,73.0535863 C145.56159,77.6669027 147.497301,82.1992644 147.545366,83.2378425 C147.63584,85.1928131 143.642617,85.1928131 141.20284,83.2378425 C139.0033,78.6334495 136.930911,72.5700325 134.985673,65.0475915 C135.608594,68.1034753 134.336501,72.1427731 131.169395,77.165485 C126.418736,84.6995527 115.866049,84.3246529 110.688579,83.2378425 C109.97644,82.7840185 107.394964,80.6167038 107.070472,76.331253 C106.548148,69.4331109 104.058922,63.2195761 101.044107,51.9673265 C99.8547639,46.2924028 98.0458484,35.9883651 95.6173603,21.0552133 C93.2293858,24.0065786 91.902875,26.0902465 91.6378281,27.3062168 C91.2558784,29.0585081 94.6276516,29.9453074 94.2788093,31.3137002 C93.929967,32.6820931 90.619343,34.4949779 90.1179643,33.268139 C88.5389205,29.4043283 83.282016,30.9696711 90.1179643,21.0552133 C96.9539125,11.1407555 104.210621,11.0427036 106.548148,11.0427036 C112.865718,10.9446517 117.212268,12.7454372 118.729476,21.0552133 C118.729476,29.1971638 117.618199,36.7250266 115.395646,43.6388016 C119.429164,42.7341221 122.769656,43.3219968 125.417123,45.4024257 C128.064589,47.4828546 130.748492,51.6290624 133.468831,57.8410493 L127.355131,21.0552133 C125.272388,17.0074926 126.543809,15.7551431 131.169395,17.2981648 C137.253848,18.3628188 145.835163,19.5367197 154.651024,16.6418646 C156.110994,15.9274292 157.552038,21.6165617 156.110994,21.6165617 C152.346393,23.1394534 147.064768,23.8673733 140.266118,23.8003216 C144.800466,26.137585 150.082091,27.5366413 156.110994,27.9974902 C161.19083,29.3324638 153.869161,31.1309852 147.067639,29.5818667 C142.533292,28.5491209 138.000356,27.0596314 133.468831,25.1133981 C133.926544,29.2884929 134.1554,32.5280089 134.1554,34.8319461 C143.642617,32.7446814 149.68474,41.8379477 161.558613,43.6388016 C163.232359,44.5297815 166.252021,43.6388016 163.684811,46.4454838 C158.718311,46.4454838 156.157224,45.9724778 149.68474,43.6388016 C143.6424,41.4602153 141.017752,37.4209588 138.655163,37.4209588 C137.080104,37.4209588 135.856941,37.7101856 134.985673,38.2886391 L136.040019,44.5543605 C141.108418,43.0015111 145.22457,45.9414466 148.388475,53.3741668 C151.500645,60.6013548 156.661527,68.1485742 161.558613,70.7691237 C166.926527,73.5310076 171.479404,73.08567 175.217243,69.4331109 L175.407089,69.7709509 C166.942197,42.1690341 160.36377,20.3003636 157.731924,15.2403905 C157.048578,13.7163786 156.218748,12.7596775 155.242436,12.370287 C155.398435,9.15108027 157.257083,8.70731194 160.81838,11.038982 C162.815867,13.9755386 164.165374,16.8896486 165.355761,20.6648824 C166.754298,25.1002516 168.265781,29.8976934 169.794387,34.7626725 L170.304425,36.3864296 L170.499999,37.0093336 L170.499999,37.0093336 L170.891181,38.2557318 C175.714947,53.6294664 180.481543,68.9753904 182.195742,75.0869107 L182.258505,75.311 L182.222265,75.1146347 C180.088558,63.6421411 178.780558,54.5611049 178.298266,47.8715262 C177.26472,33.238536 177.086722,22.9067951 177.76427,16.8763034 C178.780593,7.83056588 181.825973,1.71430314 185.823558,0.50298601 C189.821144,-0.708331125 194.046499,0.967145242 195.057358,1.68630402 Z M255.235728,0.760276658 C263.336531,3.97849752 269.869662,10.1108684 272.556463,12.7828137 L272.936181,13.1627201 C273.169038,13.3969801 273.360918,13.5921007 273.509426,13.7413778 L273.666662,13.8980763 C273.734718,13.964994 273.786814,14.0144426 273.822433,14.044974 C274.554601,14.6725642 272.839433,15.5914393 272.002724,15.1323795 C265.562746,9.76056569 257.365162,3.62778391 250.688677,3.15162566 C244.332932,2.69834212 241.626927,9.51795808 241.662291,9.76056569 C240.395671,14.5291445 242.44845,26.7433059 245.641794,40.6170091 C247.954464,40.2360164 249.820861,40.0457294 251.242101,40.0457294 L251.242902,38.7021016 C251.249049,35.0831608 251.302323,30.1981509 251.76403,27.5888592 C251.76403,26.9119335 255.068676,25.8718559 255.6896,27.5888592 C255.887576,28.1363095 255.990868,29.3717034 255.999475,31.295041 L255.999475,31.836644 C255.990868,33.8850622 255.887576,36.621424 255.6896,40.0457294 C255.993286,40.0457294 256.728034,40.2850906 257.893842,40.763813 C257.262404,41.4869113 256.656146,41.9621208 256.075067,42.1894412 L255.6896,46.7623144 C257.142022,47.0135377 257.983166,47.3237934 258.213033,47.6930816 C257.12009,48.692953 257.340252,48.1667809 256.075067,49.2750349 C255.593054,51.4955605 256.978557,59.7290368 258.572177,68.2966204 L258.790623,69.4664648 L259.016299,70.6668755 C259.141968,71.3334066 259.267971,71.9987993 259.393531,72.6603922 L259.543939,73.4523093 C261.270045,82.5344639 262.852409,90.6902405 262.247225,90.9252604 C261.635171,91.1629484 259.221786,82.8269784 256.864799,73.6985174 L256.668554,72.9361446 C256.472519,72.1722709 256.277234,71.4043948 256.083774,70.6370193 L255.793282,69.4796703 C255.722258,69.1954519 255.65156,68.9116146 255.581242,68.6283886 L255.371488,67.780775 C253.390724,59.7502452 251.76403,52.4033297 251.76403,51.0704582 C250.843693,51.1805212 249.632768,51.4742419 248.375382,51.8698117 L248.882336,53.8524752 C248.939016,54.0727363 248.995805,54.292965 249.052695,54.5131401 L249.395192,55.8333817 C254.778056,76.5018653 260.917539,96.3278437 261.265056,97.9210552 C261.939272,101.01203 255.235728,99.4140189 252.650767,98.5656591 C252.536585,98.493331 252.421512,98.4226969 252.305427,98.3532864 L252.071868,98.2159579 L251.835389,98.0810565 L251.595771,97.947746 C251.394721,97.8370847 251.190175,97.7272097 250.981563,97.6159436 L250.729241,97.4816173 C250.474895,97.3463446 250.214368,97.2078146 249.946676,97.0622648 L249.67656,96.9142358 C246.360206,95.0813556 241.934879,92.0236992 234.631003,80.964952 C228.913943,70.8225258 224.595267,58.3393025 221.674973,43.5152822 C222.645437,55.4160305 226.964114,70.5723371 234.631003,88.9842019 C232.769455,89.8373601 230.485712,89.1824551 230.196658,88.9842019 C229.273329,87.0603221 228.393686,85.0916493 227.557729,83.0781834 C222.151479,81.1130323 217.769141,78.329955 214.410677,74.728911 C209.085255,69.0188364 206.860808,61.0170118 205.989815,59.2771617 C205.118821,57.5373116 205.529749,57.807844 204.741906,55.0337533 C202.897096,55.6304871 200.57402,55.928854 197.772676,55.928854 L200.477874,71.4487814 L205.989815,94.5291899 C204.390356,96.0362057 202.750733,96.0362057 201.070946,94.5291899 C200.712598,93.3006418 200.38354,92.3379979 199.93477,90.8047746 C199.824121,90.4267448 199.640115,89.4988191 199.462975,88.5105796 L199.358156,87.9143149 C199.18697,86.9215333 199.038695,85.9663544 198.993554,85.5383604 C196.859526,78.3949083 194.929702,68.8063758 193.204083,56.7727626 L186.841729,56.4062819 C186.157193,55.0182347 186.510561,53.7842733 187.901833,52.7043979 L192.635121,52.7043979 C192.04048,32.5621314 193.070436,19.6424925 195.724988,13.9454812 C196.846585,12.9216189 201.070946,11.545013 204.741906,16.7992983 C205.98779,25.7740022 207.311237,37.1567875 208.712248,50.9476543 C209.518709,50.6524297 210.854471,50.3239416 212.719533,49.9621902 C214.584595,49.6004389 216.203914,49.3557532 217.57749,49.2281334 C217.830846,49.2281334 218.056134,49.2365274 218.253354,49.2533153 C216.457758,38.0842271 215.560399,25.9941193 215.560399,12.9839163 C216.357152,11.7510101 218.395343,11.7510101 221.674973,12.9839163 C223.710034,18.3427104 226.618887,55.5086952 234.631003,71.7865271 C239.972413,82.6384151 246.840655,90.5960567 255.235728,95.6594518 C251.638392,81.7167756 247.816414,67.7476538 243.769796,53.7520866 C243.412625,53.9438762 243.094763,54.1351244 242.825666,54.321684 C241.425502,54.1575222 239.581624,51.1518922 240.313591,49.8705826 C240.908839,49.5381445 241.558814,49.2275005 242.263516,48.9386507 C235.862439,28.124329 234.746186,14.3814302 236.551211,8.99305348 C238.56925,-1.9087842 251.105404,-0.301600501 255.235728,0.760276658 Z M63.2624165,87.2808572 C64.112881,87.4717005 64.4906261,87.7116667 64.3956517,88.0007556 C63.1815805,91.6962202 62.6004376,94.9715758 61.8809268,95.7671534 C60.0028725,96.4926121 58.4904155,95.1740705 57.9544466,93.4538235 C58.1837157,92.3599411 59.953039,90.3022856 63.2624165,87.2808572 Z M89.6149397,80.7164375 C85.9273692,88.0833194 83.9617078,94.8566111 83.2676137,95.740363 C82.5735196,96.6241149 78.8712378,93.6726758 79.6846516,91.5761057 C80.2269275,90.1783923 83.4225299,86.4081846 89.2714588,80.2654824 C89.663968,80.2394414 89.7784617,80.3897597 89.6149397,80.7164375 Z M47.8497902,11.038982 C50.46832,11.038982 53.2775506,11.2020999 55.2365533,13.5229737 C55.8131533,14.2060846 55.2335008,15.6084473 53.4975957,17.7300621 C52.5036789,15.6698756 51.4939203,15.0796578 50.46832,15.9594084 C47.8497902,22.7907654 44.1969807,55.9878483 55.2365533,90.159919 C52.0577311,91.1412148 50.46832,91.1412148 50.46832,90.159919 C43.5051213,80.3675755 37.8695764,66.1533869 33.5616854,47.5173534 C31.8162705,66.025331 35.0599984,83.0390502 36.2106869,83.0390502 C28.0117487,90.274982 22.3067719,71.9525373 19.1179926,54.5278595 C15.9033623,36.9619229 15.2200243,20.252982 10.6570114,17.7300621 C5.30096603,21.9049435 4.28631801,32.4520344 4.28631801,35.7431158 C4.28631801,39.0341973 10.6570114,36.7149504 10.6570114,38.0695855 C10.6570114,39.1446817 3.43163424,40.7887996 0.992016151,39.439471 C0.992016151,39.439471 -1.24002019,35.1754421 0.992016151,28.1609647 C3.22405249,21.1464872 6.03136955,16.9160403 8.83609168,15.219507 C10.6570114,14.4743213 14.1781766,13.5229737 16.87797,15.9594084 C19.457388,21.4432539 20.877517,31.1188184 22.1682251,41.0481682 L22.3609894,42.5389818 L22.5525848,44.0306488 C23.9870977,55.2139673 25.388155,66.2200883 28.2221118,71.4420712 C28.2221118,65.0445063 27.1345588,46.0751625 30.3989474,35.7431158 C34.8027313,34.4103596 37.0808768,35.7431158 37.0808768,35.7431158 L37.1849112,36.3999979 L37.3946353,37.7128685 L37.4986951,38.3582626 L37.4986951,38.3582626 L37.7085339,39.6466447 C39.8538028,52.7254399 42.367516,65.1315274 45.7290509,70.4476626 C44.4609732,64.5953425 38.9499926,21.1066659 47.8497902,11.038982 Z M69.7977593,16.8847919 C76.7373344,17.8564375 77.0771772,36.6254934 77.0920956,41.1250989 L77.0926042,41.8437029 C75.0968566,43.2095882 73.9277063,43.2095882 72.227333,41.8437029 L72.2277907,41.6049588 C72.228485,41.3809492 72.2297902,41.0954863 72.2304217,40.757477 L72.2305534,40.0942339 C72.2219856,34.7629281 71.9540453,20.9559555 68.3357469,20.1038158 C64.767885,17.9991704 61.4504889,24.2519011 58.8932197,32.8583257 C56.5329271,40.8018303 56.0813972,47.3621945 57.329874,54.2424729 L63.871241,53.7364431 L63.871241,46.7832332 C66.0111625,45.7821855 67.4332293,45.9680247 68.1374411,47.3407508 L68.1374411,55.0993734 C70.0606581,55.2219083 71.0222665,55.3870622 71.0222665,55.5948351 C71.0222665,55.802608 70.0606581,56.0519258 68.1374411,56.3427887 C68.989543,65.1534055 69.9511514,70.7104136 71.0222665,73.0138128 C69.5623533,74.0543153 67.7804569,73.3323005 65.9734789,70.9101524 C64.7688269,69.2953871 64.0680809,66.6662767 63.871241,63.0228215 C62.0115408,64.0645543 60.6886838,64.4560474 59.9026699,64.1973008 L59.9165953,64.2483314 C60.2924215,65.6144858 60.5749496,66.6244857 60.6134872,66.7198591 C69.6727072,89.139712 81.1675193,79.9417718 82.6649787,77.5097425 C84.2379615,74.3739612 85.1025783,67.3966193 85.2588291,56.5777169 L85.2667809,55.9727145 L88.8976496,55.9727145 C90.4905041,66.7763489 89.9185345,74.5760748 87.1817409,79.3718921 C83.0765504,86.5656181 75.7541548,85.1997424 70.9170811,84.6818955 C70.8863509,84.6699861 70.8547221,84.6576645 70.8222132,84.6449202 L70.616747,84.5632972 C67.7043912,83.3906309 59.2615245,79.3063364 55.1620988,66.7198591 C50.9108427,53.6672161 50.9108427,45.4200557 53.5849448,35.6023239 C56.2590469,25.7845921 61.2783559,15.6919464 69.7977593,16.8847919 Z M106.519187,52.3515034 C107.401537,56.0029265 108.275527,59.4363118 109.141158,62.6516593 L109.429393,63.7153663 L114.555033,63.6364205 C112.545486,66.9658622 111.734768,70.4206207 112.122881,74.0006959 C112.510993,77.5807711 113.936654,79.7984459 116.399863,80.6537203 C120.88358,79.5766424 124.490377,77.3589676 127.220255,74.0006959 C131.315073,68.9632884 130.345957,65.4857813 128.943979,59.7894863 C127.542,54.0931912 127.220255,54.0931912 122.63823,47.8715262 C117.375092,43.3915491 116.083679,50.2962234 106.519187,52.3515034 Z M218.487966,50.684102 L218.403678,50.7455435 C218.31233,50.8108085 218.213941,50.8781788 218.108512,50.9476543 C216.368943,52.0940016 213.499965,53.20794 209.501579,54.2894693 C211.622096,61.8479917 214.314067,67.5677624 217.57749,71.4487814 C219.93855,74.6864919 222.633645,76.9473294 225.662778,78.231294 C222.552943,69.785233 220.161643,60.6025709 218.487966,50.684102 Z M182.258505,75.311 L182.376077,75.9381656 C182.479555,76.4898976 182.584904,77.0470525 182.692127,77.6096301 C182.878489,77.9971848 182.907239,77.9058797 182.800453,77.4035687 L182.754097,77.1960687 C182.657623,76.7808172 182.498391,76.1753102 182.283573,75.4015969 L182.258505,75.311 Z M63.871241,56.9823907 L58.4271105,58.7793624 C58.4962723,59.0353446 58.5682523,59.3014332 58.6421677,59.5743573 L58.4716775,59.5762594 C59.8068487,59.5762594 61.6067031,59.4338703 63.871241,59.1490919 L63.871241,56.9823907 Z M199.500731,18.8681407 C197.401019,25.5676961 196.635279,36.7473979 197.203511,52.4072459 L197.784137,52.4070698 C199.875747,52.4050242 200.247585,52.3792241 202.087976,52.0538091 L202.580514,51.9660537 C203.019533,51.8874565 203.533823,51.7948574 204.152214,51.6857621 C202.065031,36.4884375 200.514537,25.5492304 199.500731,18.8681407 Z M106.026837,13.8591042 C103.474543,13.8591042 100.499503,15.8075043 97.1017163,19.7043046 C99.1593933,19.7043046 100.400556,19.9539696 100.825205,20.4532994 C101.406688,26.3136558 103.032824,35.8267418 105.703613,48.9925575 C108.754864,45.5751378 110.902908,41.3965164 112.147745,36.4566933 C112.93624,28.759917 113.804953,26.2631412 112.93624,20.4532994 C110.878322,14.9856379 110.121763,14.9856379 106.026837,13.8591042 Z M251.242101,43.8450847 L246.638974,44.8528207 C246.845487,45.7119945 247.055397,46.5751389 247.268216,47.4409586 C248.496577,47.1767341 249.821385,46.9504275 251.242101,46.7623144 L251.242101,43.8450847 Z" id="Combined-Shape"></path>
        </g>
    </g>
</svg>