<?xml version="1.0" encoding="UTF-8"?>
<svg width="90px" height="16px" viewBox="0 0 90 16" version="1.1" xmlns="http://www.w3.org/2000/svg" xmlns:xlink="http://www.w3.org/1999/xlink">
    <title>Path 2</title>
    <g id="Page-1" stroke="none" stroke-width="1" fill="none" fill-rule="evenodd">
        <path d="M89.2762744,14.3994763 C89.3719163,14.6385057 89.3719163,15.7722931 88.4011815,14.9277336 C83.8094885,11.4576789 80.4281543,9.40544559 78.2571791,8.77103381 C78.6146971,9.32372543 78.8447664,10.0595143 78.9473871,10.9784005 C79.1013181,12.3567297 78.7473124,13.5951308 78.2571791,13.9761159 C77.1382038,14.8459058 73.9549648,15.9524927 70.8382623,13.9761159 C67.7215598,11.9997392 68.9699915,8.77103381 70.2630704,7.44489548 C58.8594776,8.00549091 58.8594776,11.3426281 52.9869405,14.9277336 C52.6435766,15.1373527 51.6828669,15.2164452 51.6828669,13.9761159 C57.7269598,-1.27380785 84.7967722,3.20425311 89.2762744,14.3994763 Z M42.6438039,13.9761069 L42.6431449,13.9888597 C42.635237,14.0866308 42.5324338,14.6945123 41.1959931,13.9761069 C39.906052,12.5737736 32.0060475,7.44490038 30.1284985,7.44490038 C30.1284985,8.41788374 30.1284985,10.2855931 28.8454112,11.8051482 C27.5623239,13.3247032 22.8937857,13.5767408 21.358376,11.8051482 C19.8229663,10.0335555 19.8229663,7.13546278 21.358376,5.52044789 C15.0934593,4.11704336 9.02400273,8.14851319 1.46181635,11.8051482 C-0.195672924,12.6776942 0.459829367,11.0982327 0.459829367,11.0982327 C12.0384227,-6.12061601 36.793725,-0.33297451 42.6438039,13.9761069 Z" id="eyes" fill="#000000"></path>
    </g>
</svg>