<?xml version="1.0" encoding="UTF-8"?>
<svg width="243px" height="349px" viewBox="0 0 243 349" version="1.1" xmlns="http://www.w3.org/2000/svg" xmlns:xlink="http://www.w3.org/1999/xlink">
    <title>w</title>
    <g id="Page-1" stroke="none" stroke-width="1" fill="none" fill-rule="evenodd">
        <g id="Artboard" transform="translate(-3.000000, -52.000000)" fill="#000000" stroke="#979797">
            <path d="M50.322995,170.602697 C50.322995,175.279366 18.9163372,182.431278 8.31201181,176.561699 C8.31201181,176.561699 -1.39001476,158.013173 8.31201181,127.500196 C18.0140384,96.9872195 30.2166465,78.5847753 42.4079751,71.2048555 C50.322995,67.9632976 65.6284975,63.8249358 77.363731,74.4234266 C102.310422,127.500196 102.310422,270.84655 126.673486,315.77301 C126.673486,287.943602 121.946203,205.426957 136.13557,160.482554 C155.277565,154.685064 165.180016,160.482554 165.180016,160.482554 C175.102844,223.351911 186.710915,286.029483 202.771166,311.447332 C197.259194,285.98974 173.30453,96.8139968 211.989417,53.0195718 C223.37142,53.0195718 235.582346,53.7291347 244.097573,63.8249358 C246.603889,66.7964678 244.084304,72.8967459 236.538819,82.1257701 C232.218546,73.1639591 227.829413,70.5965112 223.37142,74.4234266 C211.989417,104.139829 196.111693,248.54714 244.097573,397.195648 C230.280138,401.464285 223.37142,401.464285 223.37142,397.195648 C193.104377,354.598953 168.608268,292.767233 149.883092,211.700487 C142.296271,292.21019 156.395832,366.219868 161.397548,366.219868 C125.759097,397.696171 100.961188,317.993537 87.1004713,242.196189 C73.1273887,165.784365 70.1571128,93.1004718 50.322995,82.1257701 C27.0417903,100.286504 22.6314042,146.16635 22.6314042,160.482554 C22.6314042,174.798758 50.322995,164.710034 50.322995,170.602697 Z" id="w"></path>
        </g>
    </g>
</svg>